<svg xmlns="http://www.w3.org/2000/svg" width="5290" height="3828" fill="none" viewBox="0 0 5290 3828"><g clip-path="url(#clip0_5_5)"><path fill="#000" d="M5251.59 1996.43C5234.32 1965.99 5211.15 1939.31 5183.44 1917.94C5155.73 1896.57 5124.04 1880.94 5090.21 1871.97C4894.55 1822.28 4691.35 1809.37 4490.97 1833.91C4615.88 1344.76 4545.22 959.555 4473.88 739.827C4452.93 674.143 4408.26 618.623 4348.58 584.106C4288.9 549.588 4218.5 538.551 4151.12 553.149C3895.75 610.673 3655.13 720.661 3444.53 876.131C3305.48 553.158 3086.66 270.805 2808.59 55.5692C2761.3 19.5228 2703.49 0 2644.02 0C2584.56 0 2526.75 19.5228 2479.46 55.5692C2201.39 270.805 1982.57 553.158 1843.52 876.131C1632.9 720.701 1392.28 610.717 1136.93 553.149C1069.55 538.551 999.146 549.588 939.467 584.106C879.789 618.623 835.116 674.143 814.171 739.827C742.828 960.467 672.168 1345.68 797.076 1833.91C596.921 1809.46 393.967 1822.37 198.522 1871.97C164.697 1880.94 133.001 1896.57 105.291 1917.94C77.5806 1939.31 54.4129 1965.99 37.1446 1996.43C18.8347 2027.88 6.98431 2062.66 2.28764 2098.75C-2.40903 2134.83 0.142406 2171.49 9.7925 2206.58C83.6431 2480.1 310.665 3000.02 1001.76 3412.81C1692.86 3825.6 2313.06 3827.88 2644.71 3827.88C2976.35 3827.88 3593.14 3827.88 4287.43 3412.81C4981.72 2997.74 5205.55 2479.87 5279.4 2206.58C5288.98 2171.46 5291.45 2134.79 5286.68 2098.7C5281.9 2062.61 5269.97 2027.84 5251.59 1996.43ZM4190.1 730.482C4213.49 725.638 4237.84 729.709 4258.37 741.896C4278.91 754.084 4294.15 773.507 4301.1 796.354C4392.28 1081.27 4483.45 1670.48 4055.62 2414.69C3817.43 2829.3 3483.28 3148.63 3186.96 3359.24C3419.68 3052.9 3647.62 2579.71 3647.62 1894.77C3650.03 1608.16 3604.74 1323.15 3513.59 1051.41C3712.72 895.938 3943.72 786.352 4190.1 730.482ZM988.313 796.354C995.447 773.689 1010.77 754.497 1031.3 742.527C1051.83 730.557 1076.08 726.669 1099.32 731.621C1345.6 787.152 1576.59 896.345 1775.82 1051.41C1684.68 1323.15 1639.39 1608.16 1641.8 1894.77C1641.8 2579.71 1869.73 3053.13 2102.45 3358.79C1806.14 3148.18 1471.99 2828.84 1233.8 2414.23C805.738 1669.34 896.228 1080.13 988.313 796.354ZM1095.9 3258.04C459.962 2878.08 252.542 2407.39 186.441 2160.54C183.078 2148.64 182.172 2136.17 183.778 2123.91C185.385 2111.64 189.471 2099.83 195.787 2089.2C201.104 2079.58 208.306 2071.13 216.96 2064.35C225.615 2057.58 235.546 2052.62 246.16 2049.76C445.437 1999.76 652.971 1991.99 855.427 2026.97C913.694 2193.06 987.411 2353.31 1075.61 2505.63C1378.31 3032.16 1820.04 3409.85 2175.85 3625.01C1793.38 3581.99 1424.87 3456.22 1095.9 3256.45V3258.04ZM2645.85 3630.49C2497.28 3527.06 2365.91 3400.92 2256.54 3256.67C1969.34 2883.77 1824.15 2426.08 1824.15 1894.77C1824.15 886.16 2359.56 373.309 2589.78 199.851C2605.6 187.907 2624.88 181.445 2644.71 181.445C2664.53 181.445 2683.82 187.907 2699.64 199.851C2929.85 373.309 3465.27 886.16 3465.27 1894.77C3465.27 2426.08 3320.08 2883.77 3034.02 3255.08C2924.65 3399.32 2793.27 3525.46 2644.71 3628.89L2645.85 3630.49ZM5104.12 2160.54C5037.56 2407.39 4830.59 2878.08 4194.66 3258.04C3865.65 3457.65 3497.14 3583.26 3114.71 3626.15C3470.51 3410.98 3912.48 3033.53 4214.95 2506.77C4303.15 2354.45 4376.86 2194.2 4435.13 2028.11C4637.58 1993.02 4845.14 2000.78 5044.4 2050.9C5055.01 2053.76 5064.94 2058.72 5073.6 2065.49C5082.25 2072.27 5089.45 2080.72 5094.77 2090.34C5106.4 2111.24 5109.35 2135.88 5102.98 2158.94L5104.12 2160.54Z"/><path fill="url(#paint0_linear_5_5)" d="M4190.1 730.482C4213.49 725.638 4237.84 729.709 4258.37 741.896C4278.91 754.084 4294.15 773.507 4301.1 796.354C4392.28 1081.27 4483.45 1670.48 4055.62 2414.69C3817.43 2829.3 3483.28 3148.63 3186.96 3359.24C3419.68 3052.9 3647.62 2579.71 3647.62 1894.77C3650.03 1608.16 3604.74 1323.15 3513.59 1051.41C3712.72 895.938 3943.72 786.352 4190.1 730.482Z"/><path fill="url(#paint1_linear_5_5)" d="M1095.9 3258.04C459.962 2878.08 252.542 2407.39 186.441 2160.54C183.078 2148.64 182.172 2136.17 183.778 2123.91C185.385 2111.64 189.471 2099.83 195.787 2089.2C201.104 2079.58 208.306 2071.13 216.96 2064.35C225.615 2057.58 235.546 2052.62 246.16 2049.76C445.437 1999.76 652.971 1991.99 855.427 2026.97C913.694 2193.06 987.411 2353.31 1075.61 2505.63C1378.31 3032.16 1820.04 3409.85 2175.85 3625.01C1793.38 3581.99 1424.87 3456.22 1095.9 3256.45V3258.04Z"/><path fill="url(#paint2_linear_5_5)" d="M2645.85 3630.49C2497.28 3527.06 2365.91 3400.92 2256.54 3256.67C1969.34 2883.77 1824.15 2426.08 1824.15 1894.77C1824.15 886.16 2359.56 373.309 2589.78 199.851C2605.6 187.907 2624.88 181.445 2644.71 181.445C2664.53 181.445 2683.82 187.907 2699.64 199.851C2929.85 373.309 3465.27 886.16 3465.27 1894.77C3465.27 2426.08 3320.08 2883.77 3034.02 3255.08C2924.65 3399.32 2793.27 3525.46 2644.71 3628.89L2645.85 3630.49Z"/><path fill="url(#paint3_linear_5_5)" d="M988.313 796.354C995.447 773.689 1010.77 754.497 1031.3 742.527C1051.83 730.557 1076.08 726.669 1099.32 731.621C1345.6 787.152 1576.59 896.345 1775.82 1051.41C1684.68 1323.15 1639.39 1608.16 1641.8 1894.77C1641.8 2579.71 1869.73 3053.13 2102.45 3358.79C1806.14 3148.18 1471.99 2828.84 1233.8 2414.23C805.738 1669.34 896.228 1080.13 988.313 796.354Z"/><path fill="url(#paint4_linear_5_5)" d="M5104.12 2160.54C5037.56 2407.39 4830.59 2878.08 4194.66 3258.04C3865.65 3457.65 3497.14 3583.26 3114.71 3626.15C3470.51 3410.98 3912.48 3033.53 4214.95 2506.77C4303.15 2354.45 4376.86 2194.2 4435.13 2028.11C4637.58 1993.02 4845.14 2000.78 5044.4 2050.9C5055.01 2053.76 5064.94 2058.72 5073.6 2065.49C5082.25 2072.27 5089.45 2080.72 5094.77 2090.34C5106.4 2111.24 5109.35 2135.88 5102.98 2158.94L5104.12 2160.54Z"/><path stroke="#fff" stroke-width="34.19" d="M5251.59 1996.43C5234.32 1965.99 5211.15 1939.31 5183.44 1917.94C5155.73 1896.57 5124.04 1880.94 5090.21 1871.97C4894.55 1822.28 4691.35 1809.37 4490.97 1833.91C4615.88 1344.76 4545.22 959.555 4473.88 739.827C4452.93 674.143 4408.26 618.623 4348.58 584.106C4288.9 549.588 4218.5 538.551 4151.12 553.149C3895.75 610.673 3655.13 720.661 3444.53 876.131C3305.48 553.158 3086.66 270.805 2808.59 55.5692C2761.3 19.5228 2703.49 0 2644.02 0C2584.56 0 2526.75 19.5228 2479.46 55.5692C2201.39 270.805 1982.57 553.158 1843.52 876.131C1632.9 720.701 1392.28 610.717 1136.93 553.149C1069.55 538.551 999.146 549.588 939.467 584.106C879.789 618.623 835.116 674.143 814.171 739.827C742.828 960.467 672.168 1345.68 797.076 1833.91C596.921 1809.46 393.967 1822.37 198.522 1871.97C164.697 1880.94 133.001 1896.57 105.291 1917.94C77.5806 1939.31 54.4129 1965.99 37.1446 1996.43C18.8347 2027.88 6.98431 2062.66 2.28764 2098.75C-2.40903 2134.83 0.142406 2171.49 9.7925 2206.58C83.6431 2480.1 310.665 3000.02 1001.76 3412.81C1692.86 3825.6 2313.06 3827.88 2644.71 3827.88C2976.35 3827.88 3593.14 3827.88 4287.43 3412.81C4981.72 2997.74 5205.55 2479.87 5279.4 2206.58C5288.98 2171.46 5291.45 2134.79 5286.68 2098.7C5281.9 2062.61 5269.97 2027.84 5251.59 1996.43ZM4190.1 730.482C4213.49 725.638 4237.84 729.709 4258.37 741.896C4278.91 754.084 4294.15 773.507 4301.1 796.354C4392.28 1081.27 4483.45 1670.48 4055.62 2414.69C3817.43 2829.3 3483.28 3148.63 3186.96 3359.24C3419.68 3052.9 3647.62 2579.71 3647.62 1894.77C3650.03 1608.16 3604.74 1323.15 3513.59 1051.41C3712.72 895.938 3943.72 786.352 4190.1 730.482ZM988.313 796.354C995.447 773.689 1010.77 754.497 1031.3 742.527C1051.83 730.557 1076.08 726.669 1099.32 731.621C1345.6 787.152 1576.59 896.345 1775.82 1051.41C1684.68 1323.15 1639.39 1608.16 1641.8 1894.77C1641.8 2579.71 1869.73 3053.13 2102.45 3358.79C1806.14 3148.18 1471.99 2828.84 1233.8 2414.23C805.738 1669.34 896.228 1080.13 988.313 796.354ZM1095.9 3258.04C459.962 2878.08 252.542 2407.39 186.441 2160.54C183.078 2148.64 182.172 2136.17 183.778 2123.91C185.385 2111.64 189.471 2099.83 195.787 2089.2C201.104 2079.58 208.306 2071.13 216.96 2064.35C225.615 2057.58 235.546 2052.62 246.16 2049.76C445.437 1999.76 652.971 1991.99 855.427 2026.97C913.694 2193.06 987.411 2353.31 1075.61 2505.63C1378.31 3032.16 1820.04 3409.85 2175.85 3625.01C1793.38 3581.99 1424.87 3456.22 1095.9 3256.45V3258.04ZM2645.85 3630.49C2497.28 3527.06 2365.91 3400.92 2256.54 3256.67C1969.34 2883.77 1824.15 2426.08 1824.15 1894.77C1824.15 886.16 2359.56 373.309 2589.78 199.851C2605.6 187.907 2624.88 181.445 2644.71 181.445C2664.53 181.445 2683.82 187.907 2699.64 199.851C2929.85 373.309 3465.27 886.16 3465.27 1894.77C3465.27 2426.08 3320.08 2883.77 3034.02 3255.08C2924.65 3399.32 2793.27 3525.46 2644.71 3628.89L2645.85 3630.49ZM5104.12 2160.54C5037.56 2407.39 4830.59 2878.08 4194.66 3258.04C3865.65 3457.65 3497.14 3583.26 3114.71 3626.15C3470.51 3410.98 3912.48 3033.53 4214.95 2506.77C4303.15 2354.45 4376.86 2194.2 4435.13 2028.11C4637.58 1993.02 4845.14 2000.78 5044.4 2050.9C5055.01 2053.76 5064.94 2058.72 5073.6 2065.49C5082.25 2072.27 5089.45 2080.72 5094.77 2090.34C5106.4 2111.24 5109.35 2135.88 5102.98 2158.94L5104.12 2160.54Z"/><path stroke="#fff" stroke-width="34.19" d="M4190.1 730.482C4213.49 725.638 4237.84 729.709 4258.37 741.896C4278.91 754.084 4294.15 773.507 4301.1 796.354C4392.28 1081.27 4483.45 1670.48 4055.62 2414.69C3817.43 2829.3 3483.28 3148.63 3186.96 3359.24C3419.68 3052.9 3647.62 2579.71 3647.62 1894.77C3650.03 1608.16 3604.74 1323.15 3513.59 1051.41C3712.72 895.938 3943.72 786.352 4190.1 730.482Z"/><path stroke="#fff" stroke-width="34.19" d="M1095.9 3258.04C459.962 2878.08 252.542 2407.39 186.441 2160.54C183.078 2148.64 182.172 2136.17 183.778 2123.91C185.385 2111.64 189.471 2099.83 195.787 2089.2C201.104 2079.58 208.306 2071.13 216.96 2064.35C225.615 2057.58 235.546 2052.62 246.16 2049.76C445.437 1999.76 652.971 1991.99 855.427 2026.97C913.694 2193.06 987.411 2353.31 1075.61 2505.63C1378.31 3032.16 1820.04 3409.85 2175.85 3625.01C1793.38 3581.99 1424.87 3456.22 1095.9 3256.45V3258.04Z"/><path stroke="#fff" stroke-width="34.19" d="M2645.85 3630.49C2497.28 3527.06 2365.91 3400.92 2256.54 3256.67C1969.34 2883.77 1824.15 2426.08 1824.15 1894.77C1824.15 886.16 2359.56 373.309 2589.78 199.851C2605.6 187.907 2624.88 181.445 2644.71 181.445C2664.53 181.445 2683.82 187.907 2699.64 199.851C2929.85 373.309 3465.27 886.16 3465.27 1894.77C3465.27 2426.08 3320.08 2883.77 3034.02 3255.08C2924.65 3399.32 2793.27 3525.46 2644.71 3628.89L2645.85 3630.49Z"/><path stroke="#fff" stroke-width="34.19" d="M988.313 796.354C995.447 773.689 1010.77 754.497 1031.3 742.527C1051.83 730.557 1076.08 726.669 1099.32 731.621C1345.6 787.152 1576.59 896.345 1775.82 1051.41C1684.68 1323.15 1639.39 1608.16 1641.8 1894.77C1641.8 2579.71 1869.73 3053.13 2102.45 3358.79C1806.14 3148.18 1471.99 2828.84 1233.8 2414.23C805.738 1669.34 896.228 1080.13 988.313 796.354Z"/><path stroke="#fff" stroke-width="34.19" d="M5104.12 2160.54C5037.56 2407.39 4830.59 2878.08 4194.66 3258.04C3865.65 3457.65 3497.14 3583.26 3114.71 3626.15C3470.51 3410.98 3912.48 3033.53 4214.95 2506.77C4303.15 2354.45 4376.86 2194.2 4435.13 2028.11C4637.58 1993.02 4845.14 2000.78 5044.4 2050.9C5055.01 2053.76 5064.94 2058.72 5073.6 2065.49C5082.25 2072.27 5089.45 2080.72 5094.77 2090.34C5106.4 2111.24 5109.35 2135.88 5102.98 2158.94L5104.12 2160.54Z"/></g><defs><linearGradient id="paint0_linear_5_5" x1="2644.52" x2="2644.52" y1="0" y2="3827.88" gradientUnits="userSpaceOnUse"><stop stop-color="#B59FDC"/><stop offset=".46" stop-color="#673AB7"/><stop offset=".77" stop-color="#311B92"/></linearGradient><linearGradient id="paint1_linear_5_5" x1="2644.52" x2="2644.52" y1="0" y2="3827.88" gradientUnits="userSpaceOnUse"><stop stop-color="#E0F7FA"/><stop offset=".485" stop-color="#89CFF0"/><stop offset="1" stop-color="#005F73"/></linearGradient><linearGradient id="paint2_linear_5_5" x1="2644.52" x2="2644.52" y1="0" y2="3827.88" gradientUnits="userSpaceOnUse"><stop stop-color="#FFAB91"/><stop offset=".37" stop-color="#FF5722"/><stop offset=".655" stop-color="#B71C1C"/></linearGradient><linearGradient id="paint3_linear_5_5" x1="2644.52" x2="2644.52" y1="0" y2="3827.88" gradientUnits="userSpaceOnUse"><stop offset=".105" stop-color="#C89F79"/><stop offset=".35" stop-color="#8B5A2B"/><stop offset=".69" stop-color="#5D3A1A"/></linearGradient><linearGradient id="paint4_linear_5_5" x1="2644.52" x2="2644.52" y1="0" y2="3827.88" gradientUnits="userSpaceOnUse"><stop offset=".105" stop-color="#74AEE6"/><stop offset=".42" stop-color="#176FCA" stop-opacity=".75"/><stop offset=".795" stop-color="#0D47A1"/></linearGradient><clipPath id="clip0_5_5"><rect width="5289.04" height="3827.88" fill="#fff"/></clipPath></defs></svg>